<?xml version="1.0" encoding="utf-8"?>
<!-- Generator: Adobe Illustrator 23.0.6, SVG Export Plug-In . SVG Version: 6.00 Build 0)  -->
<svg version="1.1" id="Layer_1" xmlns="http://www.w3.org/2000/svg" xmlns:xlink="http://www.w3.org/1999/xlink" x="0px" y="0px"
	 viewBox="0 0 120 120" style="enable-background:new 0 0 120 120;" xml:space="preserve">
<style type="text/css">
	.st0{fill:#A7B9D9;}
	.st1{fill:#FFFFFF;}
</style>
<circle class="st0" cx="59.9" cy="60" r="58.6"/>
<g>
	<g transform="translate(0,-952.36218)">
		<path class="st1" d="M84.2,977.7c-9.5,0-17.2,6.2-19.1,13.8c-0.5,1.7,0.7,3.7,2.4,4.1c1.7,0.4,3.7-0.8,4.1-2.5
			c1-4.1,6.1-8.7,12.5-8.7c3.1,0,6.4,1.2,8.8,3c2.3,1.9,3.7,4.3,3.7,7.1c0,3.7-0.8,5.4-1.8,6.7c-1,1.3-2.6,2.3-4.7,3.8
			c-2.1,1.5-4.6,3.6-6.4,7c-1.8,3.4-2.9,7.9-2.9,14.2c-0.2,1.9,1.5,3.7,3.4,3.7c1.9,0,3.6-1.8,3.4-3.7c0-5.6,0.9-8.8,2.1-11
			c1.2-2.1,2.6-3.3,4.4-4.6s4.2-2.7,6.2-5.2c2-2.5,3.2-6.1,3.2-10.8c0-5.1-2.6-9.5-6.2-12.4C93.6,979.3,89,977.7,84.2,977.7z
			 M84.2,1034.2c-2.5,0-4.5,2-4.5,4.5s2,4.5,4.5,4.5c2.5,0,4.5-2,4.5-4.5S86.7,1034.2,84.2,1034.2L84.2,1034.2z"/>
	</g>
</g>
<g>
	<g>
		<path class="st1" d="M45.7,87.4l-0.5,0c-1.9-0.3-3.3-2.1-3-4l7-49.2c0.3-1.9,2.1-3.3,4-3c1.9,0.3,3.3,2.1,3,4l-7,49.2
			C49,86.1,47.5,87.4,45.7,87.4z M24.7,87.4l-0.5,0c-1.9-0.3-3.3-2.1-3-4l7-49.2c0.3-1.9,2-3.3,4-3c1.9,0.3,3.3,2.1,3,4l-7,49.2
			C27.9,86.1,26.4,87.4,24.7,87.4z M63.3,52.2H17.6c-1.9,0-3.5-1.6-3.5-3.5s1.6-3.5,3.5-3.5h45.7c1.9,0,3.5,1.6,3.5,3.5
			S65.2,52.2,63.3,52.2z M59.8,73.3H14.1c-1.9,0-3.5-1.6-3.5-3.5s1.6-3.5,3.5-3.5h45.7c1.9,0,3.5,1.6,3.5,3.5S61.7,73.3,59.8,73.3z"
			/>
	</g>
</g>
</svg>
